<svg width="1029" height="417" viewBox="0 0 1029 417" fill="none" xmlns="http://www.w3.org/2000/svg">
<path d="M119.7 171.5L93.9 185.5L85.6 167.3C77 177.9 64.3 185.5 47.8 185.5C16.4 185.5 0 159.5 0 119.3C0 75.6002 19.4 52.1002 50.3 52.1002C64.8 52.1002 76.1 57.5002 83.4 67.6002V3.2002H109.9V151.9L119.7 171.5ZM83.4 153.8V85.3002C76.5 79.7002 67.9 76.2002 58.9 76.2002C39.3 76.2002 27.7 91.2002 27.7 119.4C27.7 146.4 38.5 161.4 58.4 161.4C67.2 161.4 76.3 158.5 83.4 153.8Z" fill="black"/>
<path d="M251.2 121.7H164.3C166.1 144 183.5 159 211 159C225 159 240.2 156.1 250.5 150.7L242.2 177.9C233.6 182.6 219.1 185.5 202.5 185.5C163 185.5 137 158.8 137 118C137 77 161.8 52 201.3 52C233.9 52 254.5 70.6 254.5 100.8C254.4 107.7 253.2 115.8 251.2 121.7ZM165.9 103.3H228.5C227.3 84.2 218.2 75.1 201.3 75.1C182.8 75.1 170 85.6 165.9 103.3Z" fill="black"/>
<path d="M315.8 182.3L265.7 55.2002H294.9L327.5 144L331.2 155H332.2L335.9 144L368.3 55.2002H397L347.2 182.3H315.8Z" fill="black"/>
<path d="M483.8 55.5H541.2L537.5 75.9H480.1L460 190.2C454.4 222.1 433 234.1 403.1 234.1C389.4 234.1 383 232.1 376.1 230.7L375.6 210.1C382.5 211.3 390.6 212.1 401.9 212.1C419.8 212.1 431.6 205 434.3 190L454.4 75.9H414.4L418.1 55.5H458.1L460.1 43.7C465.7 12 486.8 0 516.5 0C530.5 0 537.6 2 543.7 3.4L544.2 24.5C537.3 22.8 529.2 22 517.9 22C500.2 22 488.5 29.1 485.8 44.1L483.8 55.5Z" fill="black"/>
<path d="M659.8 121.7H572.9C574.6 144 592 159 619.5 159C633.5 159 648.7 156.1 659 150.7L650.7 177.9C642.1 182.6 627.6 185.5 611 185.5C571.5 185.5 545.5 158.8 545.5 118C545.5 77 570.3 52 609.8 52C642.4 52 663 70.6 663 100.8C662.9 107.7 661.7 115.8 659.8 121.7ZM574.4 103.3H637C635.8 84.2 626.7 75.1 609.8 75.1C591.3 75.1 578.5 85.6 574.4 103.3Z" fill="black"/>
<path d="M688.2 174.7L686.5 146.2C697.8 154.1 718.4 160.9 740 160.9C756.4 160.9 768.2 155.7 768.2 144.2C768.2 120.2 689.2 142.5 689.2 93.4002C689.2 70.6002 706.4 51.2002 747.4 51.2002C772.4 51.2002 791.6 57.3002 791.6 72.5002C791.6 77.2002 789.6 81.1002 787.7 84.8002C776.9 79.6002 760 76.0002 745.7 76.0002C726.1 76.0002 715.8 83.4002 715.8 91.5002C715.8 112.8 795.8 94.2002 795.8 142C795.8 168.7 772.2 185.4 737.2 185.4C713.2 185.5 695.3 177.9 688.2 174.7Z" fill="black"/>
<path d="M932.3 155.3L926.9 180.1C920.5 182.8 907.8 185.5 896 185.5C864.3 185.5 850.9 169.1 850.9 145.8V77.5999H814.8V55.2999H850.9V20.3999H877.4V55.1999H928.7V77.4999H877.4V137.6C877.4 154 886 161.4 901 161.4C909.5 161.4 925.2 159.5 932.3 155.3Z" fill="black"/>
<path d="M480.697 386V261.586H517.697C522.824 261.643 527.837 262.326 532.736 263.637C537.635 264.89 541.993 266.855 545.81 269.533C549.626 272.21 552.674 275.628 554.953 279.787C557.231 283.945 558.342 288.93 558.285 294.74C558.228 297.987 557.687 300.95 556.662 303.627C555.693 306.304 554.354 308.697 552.646 310.805C550.88 312.969 548.914 314.792 546.75 316.273C544.642 317.755 542.078 319.15 539.059 320.46V320.717C542.192 321.457 545.211 322.796 548.117 324.733C551.022 326.67 553.415 328.806 555.294 331.142C557.288 333.705 558.826 336.582 559.909 339.772C561.048 342.962 561.618 346.409 561.618 350.111C561.675 355.922 560.564 361.049 558.285 365.492C556.007 369.936 552.959 373.638 549.142 376.601C545.325 379.62 540.91 381.927 535.897 383.522C530.941 385.117 525.814 385.943 520.517 386H480.697ZM496.591 327.809V372.584H520.944C524.248 372.528 527.381 371.986 530.343 370.961C533.306 369.879 535.926 368.397 538.205 366.518C540.483 364.638 542.278 362.331 543.588 359.596C544.955 356.862 545.639 353.757 545.639 350.282C545.696 346.75 545.097 343.617 543.844 340.883C542.648 338.148 540.967 335.813 538.803 333.876C536.638 331.996 534.103 330.543 531.198 329.518C528.292 328.493 525.159 327.923 521.798 327.809H496.591ZM496.591 314.65H518.637C521.599 314.593 524.504 314.137 527.353 313.283C530.201 312.371 532.736 311.061 534.958 309.352C537.179 307.7 538.974 305.649 540.341 303.2C541.708 300.75 542.392 297.902 542.392 294.655C542.392 291.18 541.708 288.218 540.341 285.768C539.031 283.319 537.265 281.296 535.043 279.701C532.764 278.163 530.144 277.024 527.182 276.283C524.276 275.543 521.286 275.144 518.209 275.087H496.591V314.65ZM645.358 353.786H603.83L593.832 386H578.024L618.185 261.586H631.43L670.907 386H655.185L645.358 353.786ZM608.102 340.028H641.171L624.765 286.024L608.102 340.028ZM769.088 386H754.135V328.493H703.122V386H688.253V261.586H703.122V315.077H754.135V261.586H769.088V386ZM796.176 261.586H871.371V275.343H841.549V372.328H871.371V386H796.176V372.328H825.314V275.343H796.176V261.586ZM960.666 353.786H919.137L909.14 386H893.332L933.493 261.586H946.737L986.215 386H970.492L960.666 353.786ZM923.41 340.028H956.479L940.072 286.024L923.41 340.028Z" fill="black"/>
<path d="M480.697 386H479.697V387H480.697V386ZM480.697 261.586V260.586H479.697V261.586H480.697ZM517.697 261.586L517.708 260.586H517.697V261.586ZM532.736 263.637L532.477 264.603L532.488 264.606L532.736 263.637ZM554.953 279.787L554.076 280.267L554.953 279.787ZM558.285 294.74L559.285 294.758L559.285 294.75L558.285 294.74ZM556.662 303.627L555.728 303.269L555.724 303.278L555.721 303.287L556.662 303.627ZM552.646 310.805L553.42 311.437L553.422 311.434L552.646 310.805ZM546.75 316.273L546.185 315.448L546.175 315.455L546.75 316.273ZM539.059 320.46L538.661 319.543L538.059 319.804V320.46H539.059ZM539.059 320.717H538.059V321.508L538.829 321.69L539.059 320.717ZM555.294 331.142L556.084 330.528L556.079 330.521L556.073 330.515L555.294 331.142ZM559.909 339.772L558.962 340.093L558.964 340.101L558.967 340.108L559.909 339.772ZM561.618 350.111H560.618L560.618 350.121L561.618 350.111ZM549.142 376.601L548.529 375.811L548.522 375.816L549.142 376.601ZM535.897 383.522L535.594 382.569L535.591 382.57L535.897 383.522ZM520.517 386V387L520.527 387L520.517 386ZM496.591 327.809V326.809H495.591V327.809H496.591ZM496.591 372.584H495.591V373.584H496.591V372.584ZM520.944 372.584V373.584H520.952L520.961 373.584L520.944 372.584ZM530.343 370.961L530.67 371.906L530.678 371.903L530.686 371.9L530.343 370.961ZM543.588 359.596L542.693 359.149L542.69 359.156L542.686 359.164L543.588 359.596ZM545.639 350.282L544.639 350.266L544.639 350.274V350.282H545.639ZM543.844 340.883L542.928 341.284L542.932 341.292L542.935 341.299L543.844 340.883ZM538.803 333.876L539.47 333.131L539.464 333.126L539.458 333.121L538.803 333.876ZM521.798 327.809L521.832 326.81L521.815 326.809H521.798V327.809ZM496.591 314.65H495.591V315.65H496.591V314.65ZM518.637 314.65V315.65H518.646L518.656 315.65L518.637 314.65ZM527.353 313.283L527.64 314.241L527.649 314.238L527.657 314.235L527.353 313.283ZM534.958 309.352L534.361 308.55L534.354 308.554L534.348 308.559L534.958 309.352ZM540.341 285.768L539.459 286.24L539.463 286.248L539.468 286.255L540.341 285.768ZM535.043 279.701L535.626 278.889L535.614 278.88L535.602 278.872L535.043 279.701ZM527.182 276.283L526.935 277.252L526.939 277.253L527.182 276.283ZM518.209 275.087L518.228 274.087L518.219 274.087H518.209V275.087ZM496.591 275.087V274.087H495.591V275.087H496.591ZM481.697 386V261.586H479.697V386H481.697ZM480.697 262.586H517.697V260.586H480.697V262.586ZM517.686 262.586C522.73 262.642 527.66 263.314 532.477 264.603L532.994 262.671C528.014 261.339 522.917 260.644 517.708 260.586L517.686 262.586ZM532.488 264.606C537.28 265.831 541.525 267.749 545.235 270.351L546.384 268.714C542.46 265.962 537.99 263.949 532.984 262.668L532.488 264.606ZM545.235 270.351C548.924 272.939 551.869 276.241 554.076 280.267L555.83 279.306C553.479 275.016 550.328 271.481 546.384 268.714L545.235 270.351ZM554.076 280.267C556.255 284.245 557.341 289.053 557.285 294.73L559.285 294.75C559.343 288.807 558.207 283.645 555.83 279.306L554.076 280.267ZM557.285 294.723C557.23 297.869 556.706 300.714 555.728 303.269L557.595 303.985C558.668 301.185 559.226 298.106 559.285 294.758L557.285 294.723ZM555.721 303.287C554.789 305.864 553.504 308.158 551.869 310.175L553.422 311.434C555.205 309.236 556.597 306.744 557.602 303.967L555.721 303.287ZM551.871 310.173C550.161 312.268 548.266 314.024 546.185 315.448L547.314 317.099C549.563 315.56 551.598 313.671 553.42 311.437L551.871 310.173ZM546.175 315.455C544.135 316.888 541.634 318.253 538.661 319.543L539.457 321.378C542.522 320.048 545.148 318.621 547.324 317.092L546.175 315.455ZM538.059 320.46V320.717H540.059V320.46H538.059ZM538.829 321.69C541.837 322.401 544.747 323.688 547.562 325.565L548.671 323.901C545.676 321.904 542.547 320.514 539.289 319.744L538.829 321.69ZM547.562 325.565C550.396 327.454 552.709 329.524 554.515 331.769L556.073 330.515C554.12 328.088 551.648 325.885 548.671 323.901L547.562 325.565ZM554.505 331.756C556.428 334.228 557.914 337.005 558.962 340.093L560.856 339.451C559.739 336.159 558.149 333.182 556.084 330.528L554.505 331.756ZM558.967 340.108C560.064 343.181 560.618 346.512 560.618 350.111H562.618C562.618 346.305 562.032 342.743 560.85 339.436L558.967 340.108ZM560.618 350.121C560.673 355.796 559.589 360.759 557.395 365.036L559.175 365.949C561.539 361.339 562.676 356.047 562.618 350.102L560.618 350.121ZM557.395 365.036C555.181 369.354 552.226 372.941 548.529 375.811L549.755 377.391C553.691 374.336 556.832 370.517 559.175 365.949L557.395 365.036ZM548.522 375.816C544.807 378.755 540.502 381.008 535.594 382.569L536.201 384.475C541.319 382.846 545.844 380.485 549.762 377.385L548.522 375.816ZM535.591 382.57C530.732 384.134 525.705 384.944 520.506 385L520.527 387C525.924 386.942 531.151 386.1 536.204 384.474L535.591 382.57ZM520.517 385H480.697V387H520.517V385ZM495.591 327.809V372.584H497.591V327.809H495.591ZM496.591 373.584H520.944V371.584H496.591V373.584ZM520.961 373.584C524.365 373.526 527.603 372.968 530.67 371.906L530.016 370.016C527.159 371.005 524.131 371.529 520.927 371.585L520.961 373.584ZM530.686 371.9C533.748 370.782 536.469 369.246 538.841 367.289L537.568 365.746C535.383 367.549 532.863 368.976 530 370.022L530.686 371.9ZM538.841 367.289C541.235 365.314 543.118 362.89 544.49 360.028L542.686 359.164C541.437 361.771 539.732 363.961 537.568 365.746L538.841 367.289ZM544.482 360.043C545.928 357.152 546.639 353.891 546.639 350.282H544.639C544.639 353.623 543.982 356.571 542.693 359.149L544.482 360.043ZM546.639 350.298C546.697 346.643 546.079 343.358 544.753 340.466L542.935 341.299C544.116 343.876 544.694 346.858 544.639 350.266L546.639 350.298ZM544.76 340.482C543.508 337.62 541.744 335.166 539.47 333.131L538.136 334.621C540.191 336.46 541.788 338.677 542.928 341.284L544.76 340.482ZM539.458 333.121C537.192 331.153 534.545 329.639 531.531 328.575L530.865 330.461C533.661 331.448 536.084 332.839 538.147 334.631L539.458 333.121ZM531.531 328.575C528.521 327.513 525.286 326.927 521.832 326.81L521.764 328.809C525.033 328.919 528.064 329.473 530.865 330.461L531.531 328.575ZM521.798 326.809H496.591V328.809H521.798V326.809ZM496.591 315.65H518.637V313.65H496.591V315.65ZM518.656 315.65C521.709 315.591 524.705 315.121 527.64 314.241L527.065 312.325C524.304 313.153 521.489 313.595 518.617 313.65L518.656 315.65ZM527.657 314.235C530.608 313.291 533.248 311.929 535.567 310.145L534.348 308.559C532.224 310.193 529.793 311.452 527.048 312.33L527.657 314.235ZM535.554 310.155C537.891 308.417 539.779 306.258 541.214 303.687L539.468 302.712C538.168 305.04 536.468 306.983 534.361 308.55L535.554 310.155ZM541.214 303.687C542.677 301.067 543.392 298.045 543.392 294.655H541.392C541.392 297.758 540.739 300.434 539.468 302.712L541.214 303.687ZM543.392 294.655C543.392 291.049 542.682 287.911 541.214 285.281L539.468 286.255C540.734 288.524 541.392 291.31 541.392 294.655H543.392ZM541.223 285.296C539.841 282.714 537.974 280.575 535.626 278.889L534.46 280.513C536.555 282.018 538.22 283.923 539.459 286.24L541.223 285.296ZM535.602 278.872C533.217 277.262 530.487 276.079 527.424 275.313L526.939 277.253C529.801 277.969 532.312 279.064 534.483 280.53L535.602 278.872ZM527.429 275.314C524.447 274.554 521.379 274.145 518.228 274.087L518.191 276.087C521.192 276.142 524.106 276.531 526.935 277.252L527.429 275.314ZM518.209 274.087H496.591V276.087H518.209V274.087ZM495.591 275.087V314.65H497.591V275.087H495.591ZM645.358 353.786L646.314 353.494L646.098 352.786H645.358V353.786ZM603.83 353.786V352.786H603.093L602.875 353.489L603.83 353.786ZM593.832 386V387H594.569L594.787 386.296L593.832 386ZM578.024 386L577.072 385.693L576.65 387H578.024V386ZM618.185 261.586V260.586H617.457L617.233 261.279L618.185 261.586ZM631.43 261.586L632.383 261.283L632.162 260.586H631.43V261.586ZM670.907 386V387H672.274L671.86 385.698L670.907 386ZM655.185 386L654.228 386.292L654.444 387H655.185V386ZM608.102 340.028L607.147 339.733L606.747 341.028H608.102V340.028ZM641.171 340.028V341.028H642.52L642.128 339.738L641.171 340.028ZM624.765 286.024L625.721 285.734L624.772 282.609L623.809 285.73L624.765 286.024ZM645.358 352.786H603.83V354.786H645.358V352.786ZM602.875 353.489L592.877 385.704L594.787 386.296L604.785 354.082L602.875 353.489ZM593.832 385H578.024V387H593.832V385ZM578.976 386.307L619.137 261.893L617.233 261.279L577.072 385.693L578.976 386.307ZM618.185 262.586H631.43V260.586H618.185V262.586ZM630.477 261.888L669.954 386.302L671.86 385.698L632.383 261.283L630.477 261.888ZM670.907 385H655.185V387H670.907V385ZM656.141 385.708L646.314 353.494L644.401 354.077L654.228 386.292L656.141 385.708ZM608.102 341.028H641.171V339.028H608.102V341.028ZM642.128 339.738L625.721 285.734L623.808 286.315L640.214 340.319L642.128 339.738ZM623.809 285.73L607.147 339.733L609.058 340.323L625.72 286.319L623.809 285.73ZM769.088 386V387H770.088V386H769.088ZM754.135 386H753.135V387H754.135V386ZM754.135 328.493H755.135V327.493H754.135V328.493ZM703.122 328.493V327.493H702.122V328.493H703.122ZM703.122 386V387H704.122V386H703.122ZM688.253 386H687.253V387H688.253V386ZM688.253 261.586V260.586H687.253V261.586H688.253ZM703.122 261.586H704.122V260.586H703.122V261.586ZM703.122 315.077H702.122V316.077H703.122V315.077ZM754.135 315.077V316.077H755.135V315.077H754.135ZM754.135 261.586V260.586H753.135V261.586H754.135ZM769.088 261.586H770.088V260.586H769.088V261.586ZM769.088 385H754.135V387H769.088V385ZM755.135 386V328.493H753.135V386H755.135ZM754.135 327.493H703.122V329.493H754.135V327.493ZM702.122 328.493V386H704.122V328.493H702.122ZM703.122 385H688.253V387H703.122V385ZM689.253 386V261.586H687.253V386H689.253ZM688.253 262.586H703.122V260.586H688.253V262.586ZM702.122 261.586V315.077H704.122V261.586H702.122ZM703.122 316.077H754.135V314.077H703.122V316.077ZM755.135 315.077V261.586H753.135V315.077H755.135ZM754.135 262.586H769.088V260.586H754.135V262.586ZM768.088 261.586V386H770.088V261.586H768.088ZM796.176 261.586V260.586H795.176V261.586H796.176ZM871.371 261.586H872.371V260.586H871.371V261.586ZM871.371 275.343V276.343H872.371V275.343H871.371ZM841.549 275.343V274.343H840.549V275.343H841.549ZM841.549 372.328H840.549V373.328H841.549V372.328ZM871.371 372.328H872.371V371.328H871.371V372.328ZM871.371 386V387H872.371V386H871.371ZM796.176 386H795.176V387H796.176V386ZM796.176 372.328V371.328H795.176V372.328H796.176ZM825.314 372.328V373.328H826.314V372.328H825.314ZM825.314 275.343H826.314V274.343H825.314V275.343ZM796.176 275.343H795.176V276.343H796.176V275.343ZM796.176 262.586H871.371V260.586H796.176V262.586ZM870.371 261.586V275.343H872.371V261.586H870.371ZM871.371 274.343H841.549V276.343H871.371V274.343ZM840.549 275.343V372.328H842.549V275.343H840.549ZM841.549 373.328H871.371V371.328H841.549V373.328ZM870.371 372.328V386H872.371V372.328H870.371ZM871.371 385H796.176V387H871.371V385ZM797.176 386V372.328H795.176V386H797.176ZM796.176 373.328H825.314V371.328H796.176V373.328ZM826.314 372.328V275.343H824.314V372.328H826.314ZM825.314 274.343H796.176V276.343H825.314V274.343ZM797.176 275.343V261.586H795.176V275.343H797.176ZM960.666 353.786L961.622 353.494L961.406 352.786H960.666V353.786ZM919.137 353.786V352.786H918.401L918.182 353.489L919.137 353.786ZM909.14 386V387H909.876L910.095 386.296L909.14 386ZM893.332 386L892.38 385.693L891.958 387H893.332V386ZM933.493 261.586V260.586H932.765L932.541 261.279L933.493 261.586ZM946.737 261.586L947.69 261.283L947.469 260.586H946.737V261.586ZM986.215 386V387H987.581L987.168 385.698L986.215 386ZM970.492 386L969.536 386.292L969.752 387H970.492V386ZM923.41 340.028L922.454 339.733L922.055 341.028H923.41V340.028ZM956.479 340.028V341.028H957.827L957.435 339.738L956.479 340.028ZM940.072 286.024L941.029 285.734L940.08 282.609L939.117 285.73L940.072 286.024ZM960.666 352.786H919.137V354.786H960.666V352.786ZM918.182 353.489L908.185 385.704L910.095 386.296L920.092 354.082L918.182 353.489ZM909.14 385H893.332V387H909.14V385ZM894.283 386.307L934.444 261.893L932.541 261.279L892.38 385.693L894.283 386.307ZM933.493 262.586H946.737V260.586H933.493V262.586ZM945.784 261.888L985.262 386.302L987.168 385.698L947.69 261.283L945.784 261.888ZM986.215 385H970.492V387H986.215V385ZM971.449 385.708L961.622 353.494L959.709 354.077L969.536 386.292L971.449 385.708ZM923.41 341.028H956.479V339.028H923.41V341.028ZM957.435 339.738L941.029 285.734L939.115 286.315L955.522 340.319L957.435 339.738ZM939.117 285.73L922.454 339.733L924.365 340.323L941.028 286.319L939.117 285.73Z" fill="black"/>
</svg>
