<svg width="1006" height="1095" viewBox="0 0 1006 1095" fill="none" xmlns="http://www.w3.org/2000/svg">
<mask id="mask0_1299_4" style="mask-type:alpha" maskUnits="userSpaceOnUse" x="0" y="0" width="1006" height="1095">
<path d="M794.316 1049.08H794.78V1049.54C795.833 1049.36 795.281 1049.12 796.172 1049.54C797.072 1050.32 796.947 1050.21 797.1 1051.86C795.499 1051.68 794.72 1051.33 793.852 1050.47C795.119 1049.73 794.233 1050.55 794.316 1049.08ZM794.316 1049.08C794.015 1048.28 794.223 1048.63 793.852 1048.15C793.852 1049.27 793.736 1049.08 794.316 1049.08ZM804.968 949.313C804.968 949.313 804.949 949.35 804.94 949.369C804.94 949.415 804.949 949.42 804.968 949.313ZM804.968 949.313C804.972 949.285 804.977 949.248 804.986 949.207C804.986 949.234 804.986 949.271 804.986 949.313H804.968ZM996.64 329.756C995.318 329.236 994.098 328.861 993.073 328.708C980.714 341.671 961.147 333.106 944.724 331.825C940.108 323.891 929.643 317.832 926.01 309.991V297.515C924.628 294.634 915.795 288.259 913.536 285.039C908.479 277.829 905.951 268.911 899.498 263.204C902.096 254.885 904.698 246.566 907.296 238.252C909.982 237.264 912.195 236.804 916.653 236.693C923.408 231.06 930.673 238.196 933.809 241.37L935.367 239.811C943.147 237.765 943.602 232.8 943.166 222.653C940.605 219.698 940.132 209.082 941.607 207.059C943.574 200.355 949.159 198.355 952.523 193.024C948.51 188.969 944.367 175.12 941.607 169.631V164.954H938.489C933.025 160.412 927.077 156.835 924.456 149.355C923.937 145.198 923.417 141.036 922.898 136.879L919.78 132.202C918.541 126.732 923.487 115.05 921.339 111.932C910.961 100.801 903.701 107.195 904.183 83.8568H905.742V82.2979C898.904 82.052 897.972 81.5231 896.385 76.0575C897.248 74.944 899.874 66.7317 897.944 63.5814C890.146 60.9832 882.347 58.3849 874.554 55.7867C870.397 52.9472 870.174 45.3984 866.755 41.7516V43.3105C862.209 47.5419 862.079 52.9333 854.281 54.2278C852.875 46.7578 849.364 41.5243 846.483 35.5112C820.054 36.2582 790.28 24.5059 780.979 9C771.441 13.2453 761.165 19.8847 749.79 21.4761V33.9523C745.188 36.4299 740.87 37.1862 732.635 37.0702C730.882 38.5177 731.318 38.0955 727.954 38.6291C728.08 43.0646 728.237 47.2775 726.396 49.5463C724.721 55.8934 717.131 66.3838 710.799 68.2628C707.343 69.9981 694.418 67.0936 687.404 66.7039C684.073 76.6978 683.79 71.9421 684.282 88.5383C680.339 90.8164 675.737 96.1799 671.808 97.8966H660.887C660.887 97.8966 649.345 110.837 648.413 111.936C638.917 108.865 628.302 109.422 628.14 96.3376C631.077 92.7697 633.767 78.7903 634.38 72.9443C618.695 68.4206 618.027 55.1325 612.543 40.1927C595.045 32.1938 592.911 27.8093 565.754 27.7165C564.362 32.4676 550.709 51.8012 547.04 54.2278C541.324 56.3063 535.6 58.3849 529.884 60.4681C524.164 68.7825 518.444 77.1061 512.729 85.4204C497.652 86.9794 482.575 88.5383 467.503 90.0972C463.671 96.1799 457.663 98.3652 451.906 102.573C447.021 106.146 442.976 113.319 437.868 116.608C433.661 119.318 412.868 125.563 406.68 125.967C405.427 120.998 402.686 119.958 400.44 116.608C398.631 113.904 399.248 111.403 397.323 108.809C392.781 102.689 380.112 103.766 369.252 104.132C359.57 111.76 345.444 93.3682 336.5 91.6562C328.294 100.207 305.929 103.715 305.312 118.167C301.494 123.364 307.719 138.526 311.551 141.561C314.307 143.741 319.317 143.059 320.908 146.238V174.308C318.658 175.37 308.281 179.142 306.875 180.548C306.355 182.627 305.836 184.705 305.316 186.784C302.315 192.18 294.679 211.128 289.72 213.295C288.226 214.158 286.732 213.476 281.921 213.295C281.091 223.405 274.183 239.245 263.207 239.806C259.825 236.164 246.92 229.158 239.812 228.889C234.928 232.837 226.814 230.62 221.098 233.566C219.02 236.164 216.937 238.762 214.864 241.365H211.746C202.858 247.893 189.172 268.999 177.435 270.999C170.004 263.334 156.87 263.172 147.806 256.959C139.548 251.308 132.474 236.011 124.411 228.889C125.45 221.09 126.489 213.29 127.528 205.496C126.392 201.079 115.304 183.109 110.373 182.102C106.332 186.287 104.43 184.227 104.133 193.02C105.739 194.987 105.613 196.88 105.692 200.814C103.155 201.408 91.4549 205.667 90.0957 207.055C87.2751 209.931 88.1983 216.515 83.8561 219.531C81.7778 220.05 79.6948 220.57 77.6165 221.09C73.4924 223.391 69.0435 227.994 65.1421 230.448C61.3891 232.805 57.6546 232.545 54.2263 235.125C48.2326 239.639 48.1584 249.517 44.8693 256.959C41.5106 264.559 32.4923 268.34 29.2728 274.112C27.3522 277.555 23.9053 294.824 23.0332 299.064C17.3967 300.266 13.6855 303.059 9 305.3C11.0737 310.478 12.9989 318.709 18.357 320.899C22.5507 324.059 27.997 322.063 33.9536 324.017C42.2714 328.174 50.5893 332.336 58.9072 336.493C57.9515 339.49 58.8932 337.871 57.3484 339.611C52.6862 344.042 41.5524 342.835 38.6344 348.969C37.0757 353.646 35.5169 358.327 33.9582 363.009C38.5648 365.653 45.2636 370.943 46.4327 377.044C40.9771 380.152 32.9423 385.98 32.3995 394.201C31.0217 396.261 37.4375 423.297 40.1978 426.953C45.1523 433.518 50.9094 425.533 52.6769 439.429C42.2714 446.649 42.4988 466.66 41.7565 483.098H43.3152V484.657C47.495 484.592 50.5754 484.509 52.6722 486.216C54.1196 487.97 53.6975 487.534 54.231 490.893C48.2466 496.024 39.4462 504.339 37.0757 512.727C40.4483 516.694 39.4694 521.385 44.874 523.644C47.7455 525.955 55.2052 525.366 60.4705 525.203C61.7927 527.184 61.6349 526.985 63.588 528.321C59.5659 536.371 51.2852 537.981 47.9914 543.92C43.7513 551.557 46.3817 599.165 46.4327 612.541C54.1846 617.162 79.2866 639.034 80.7433 648.41C76.0068 651.055 71.9801 653.718 71.3863 660.887C69.7672 663.072 66.4085 697.619 68.2688 702.996C69.41 706.295 74.7681 707.395 72.9496 713.914C71.0754 720.613 64.0519 727.35 62.0293 735.748H65.1467C71.595 729.285 82.0932 728.315 90.1003 723.272C92.8141 721.564 95.3471 717.263 97.8986 715.473H101.016C104.556 713.078 108.332 708.388 111.932 706.114C115.049 705.075 118.171 704.036 121.289 702.996C121.808 701.957 122.328 700.918 122.848 699.879C125.965 698.839 129.087 697.8 132.205 696.761C132.724 695.721 133.244 694.682 133.763 693.643C150.803 687.964 142.132 690.372 164.952 678.049C167.03 677.529 169.113 677.009 171.191 676.49C172.23 674.931 173.27 673.372 174.309 671.813H177.426C180.544 668.176 183.666 664.533 186.783 660.896H189.901C192.499 657.778 195.101 654.655 197.699 651.538C204.709 646.429 214.845 640.973 222.653 637.498H227.333C233.146 634.937 240.068 628.617 246.047 626.581C252.454 624.4 283.99 632.7 289.715 634.38C295.621 636.111 299.879 634.334 303.748 637.498C305.353 639.465 305.228 641.363 305.307 645.297C302.686 648.758 301.586 666.598 300.626 671.808C307.552 673.391 331.128 686.029 333.378 684.285C347.527 680.972 351.044 667.053 366.13 665.568C373.645 672.129 387.966 673.043 397.318 678.044C397.838 679.083 398.357 680.123 398.877 681.162C402.978 683.779 407.325 684.721 411.356 687.402C411.876 688.442 412.395 689.481 412.915 690.52C424.216 698.06 435.915 703.266 447.225 710.796C451.415 713.584 456.383 719.978 461.259 721.713C467.498 721.193 473.738 720.674 479.973 720.154C486.291 722.256 483.726 727.814 492.452 729.512C497.411 725.081 509.18 722.195 517.405 721.713C522.42 728.788 535.043 738.161 542.359 743.547C548.079 749.783 553.799 756.023 559.514 762.264C561.806 763.967 565.693 764.449 567.313 766.941C569.391 776.299 571.474 785.657 573.552 795.016C578.228 795.535 582.909 796.055 587.59 796.574C592.953 794.848 598.325 787.68 603.186 785.657C615.141 785.138 627.101 784.618 639.056 784.098C647.007 786.474 656.61 791.893 664.009 795.016C672.29 798.509 680.2 798.375 687.404 802.815C691.315 805.223 695.759 809.89 699.879 812.173C707.807 816.562 733.837 825.758 731.072 838.684C727.18 856.895 715.211 863.836 706.118 876.113C704.318 878.539 703.975 882.042 701.437 883.912C691.143 891.498 683.382 890.872 682.723 908.864C687.97 913.277 687.451 918.585 685.841 926.022C677.245 928.875 666.565 929.256 659.329 932.258C658.34 934.944 657.881 937.157 657.77 941.616C653.613 946.993 651.577 974.015 651.535 983.721C655.52 986.472 657.111 991.841 660.892 994.638C673.575 1004.03 695.23 1017.21 696.766 1036.75C693.917 1038.45 692.257 1040.17 690.526 1042.98C696.682 1044.73 698.631 1049.27 703.001 1052.34H706.118C710.999 1055.66 715.396 1061.48 720.151 1064.82C722.824 1066.69 725.278 1066.07 727.95 1067.94C731.146 1070.18 734.11 1075.05 737.307 1077.29C739.983 1079.17 742.414 1078.55 745.105 1080.41C748.431 1085.4 747.912 1085.38 751.057 1086.32C751.841 1083.52 753.107 1080.84 753.26 1080.39C757.153 1071.42 762.618 1064.14 767.716 1056.48C770.49 1052.32 773 1046.73 777.073 1044C781.457 1041.08 788.712 1041.81 792.669 1038.55C797.554 1027.8 794.516 1031.85 806.707 1020.61C807.589 1019.34 807.222 1018.49 808.266 1017.49C807.978 1011.01 804.281 1009.84 802.806 1005.01C803.066 999.816 803.325 994.615 803.585 989.419C803.019 987.377 801.001 983.99 800.468 982.399C799.679 980.051 799.971 974.553 799.688 973.041C799.93 970.257 799.702 972.864 799.688 972.976C799.698 972.874 799.967 969.788 801.242 955.108C801.98 953.637 804.086 951.22 804.94 949.355C804.94 949.239 804.982 948.868 804.986 949.193C805.107 948.459 805.515 945.286 806.703 934.053C807.51 931.729 810.057 930.174 810.103 926.718C810.697 925.999 810.623 926.133 810.057 925.86C809.681 922.779 807.213 920.821 808.261 916.9C809.273 913.119 809.161 913.615 809.161 914.033C809.904 913.643 809.723 913.82 809.301 913.286C815.099 894.092 814.501 899.822 814.501 891.164C815.382 887.972 816.658 882.423 817.618 879.467V875.57C818.477 873.371 821.112 871.445 822.123 869.019C822.132 869.019 822.141 869.019 822.155 869.019C822.151 869.005 822.146 868.991 822.141 868.982C822.369 868.429 822.299 869.613 822.299 857.637C824.378 854 826.46 850.358 828.539 846.72V835.803C829.054 834.123 831.127 831.813 831.656 830.347C831.656 825.243 832.125 829.233 832.635 822.914C833.985 819.188 835.92 814.363 837.896 812.41C837.794 810.54 837.446 810.879 838.397 809.626C838.016 806.708 837.177 807.167 832.964 798.783C832.496 794.366 832.937 795.006 831.053 794.255C830.807 793.484 830.974 795.196 830.093 781.222C827.231 770.207 830.979 774.814 827.578 768.472C827.476 767.818 827.37 767.163 827.272 766.505C828.358 765.247 827.741 764.37 826.767 763.155C822.513 734.686 823.25 750.099 822.912 735.989C824.47 728.784 822.809 731.498 822.299 710.258C822.271 710.142 821.789 708.972 821.371 707.942C820.527 703.595 820.74 708.017 820.74 694.664C819.66 691.875 819.836 693.819 819.836 689.435C818.616 690.339 819.121 690.409 818.778 690.335C812.664 676.935 816.839 675.659 819.961 665.03V657.23C820.277 656.089 822.016 653.417 822.299 652.554C822.299 642.3 822.086 648.183 824.637 640.077C824.586 639.349 824.535 638.625 824.484 637.897C824.967 636.324 823.992 636.101 824.48 635.141C824.197 634.668 824.313 635.503 823.863 629.16C824.34 627.713 826.456 625.356 826.98 623.699V619.023C827.207 618.396 829.119 617.143 829.318 616.684C831.234 612.318 831.703 590.771 829.044 590.976C828.576 590.447 828.655 590.785 828.655 590.131C828.093 590.414 827.852 590.771 827.676 591.138C824.93 591.616 824.113 592.794 822.452 594.154C822.545 593.569 822.489 592.994 822.16 592.451C821.316 594.715 820.754 594.256 819.377 594.307C819.878 595.634 820.202 595.541 820.304 597.555C821.52 597.555 821.098 597.759 821.608 596.543C821.803 598.71 822.392 599.638 824.642 600.311C824.146 601.791 824.642 600.997 823.863 601.87C823.863 602.849 824.025 602.649 823.079 602.649C822.503 601.48 822.619 602.482 822.619 599.411C821.947 599.503 821.385 599.503 820.843 599.457C819.033 597.425 816.918 595.782 816.125 594.771V594.896C815.113 593.936 815.28 594.186 815.28 593.541C818.593 593.908 817.753 594.01 818.634 593.161C819.929 593.254 819.381 592.966 823.074 591.732C823.547 589.106 823.102 589.765 823.074 587.835C823.682 586.874 825.101 586.953 825.412 585.496C824.095 583.96 822.675 578.207 823.853 574.579C824.586 572.305 825.89 571.818 826.173 568.552C826.228 568.487 826.289 568.422 826.344 568.362C828.474 568.612 828.966 568.719 830.088 569.907C833.901 569.331 832.862 568.134 834.769 566.005C834.574 565.425 834.727 564.158 833.846 563.23C832.867 560.298 832.964 561.115 833.284 559.509C832.932 558.711 832.626 559.027 832.357 558.771C831.512 556.234 832.134 556.888 830.088 555.867C829.731 554.443 833.521 548.105 833.99 546.509C833.957 546.096 833.925 545.688 833.897 545.275C834.319 545.08 834.157 545.469 834.681 542.338C834.486 541.841 834.031 541.489 833.581 541.141C833.461 539.549 833.336 537.962 833.215 536.371C832.32 536.371 832.89 536.487 832.436 535.8C832.436 535.55 832.482 535.601 832.255 535.573C831.387 534.64 831.434 535.281 831.434 534.45C830.65 534.45 831.234 534.302 830.339 535.42C829.852 535.434 829.374 535.513 827.75 535.596C827.541 532.451 825.955 528.484 827.75 526.238V523.12C828.553 521.385 840.647 513.173 843.351 512.203C843.138 509.665 842.34 509.66 842.567 509.396C844.075 508.834 843.783 509.113 840.902 508.092C840.415 507.855 836.898 506.788 835.609 505.22H834.801C834.801 505.22 834.783 505.197 834.774 505.188C834.634 505.188 834.681 505.253 834.681 504.756C837.163 504.835 838.132 505.341 839.32 506.612C840.647 506.626 841.806 506.631 842.526 506.171C842.544 506.584 842.558 507.03 842.572 507.526C843.546 508.352 843.783 509.104 844.905 509.864C844.905 510.843 844.748 510.644 845.689 510.644C847.095 508.477 849.642 507.893 851.15 505.967C851.409 505.188 851.669 504.408 851.929 503.624C853.135 502.659 854.559 502.975 855.826 502.065C856.999 500.659 858.169 499.253 859.342 497.852C860.432 497.741 860.052 498.052 860.799 496.762C863.211 495.588 865.633 495.788 866.746 492.711C869.14 488.74 861.55 480.296 856.605 479.456C854.768 478.44 854.513 479.887 852.708 481.015C852.653 480.922 852.597 480.838 852.541 480.75C853.325 479.47 853.734 479.734 851.423 479.326C850.226 478.166 848.737 477.851 845.889 477.874C845.202 476.333 844.896 475.679 844.506 475.916C846.696 473.489 850.045 469.944 851.145 466.975C850.672 463.658 850.695 464.326 850.918 463.918C850.611 463.718 850.714 463.969 850.366 461.519C852.328 460.535 851.869 461.301 852.203 457.979C852.356 457.853 852.309 457.942 852.309 457.422H852.773C853.014 458.582 852.852 457.816 852.773 459.278C853.358 459.278 853.237 459.371 853.237 458.814H854.165C854.058 456.698 853.557 456.146 852.453 455.464C852.5 455 852.546 454.531 852.592 454.067C853.664 453.835 854.675 455.594 855.557 456.489C855.937 457.218 856.271 456.007 856.948 455.561C856.842 454.865 856.633 455.116 858.164 455.278C858.382 457.431 858.628 458.763 859.723 459.955C860.108 461.217 861.105 462.512 861.587 462.99C860.938 464.586 860.395 466.757 859.268 467.629C860.873 473.517 860.418 472.612 861.587 473.197C862.599 471.234 863.633 469.508 863.907 466.701C860.34 466.553 861.62 466.154 862.381 463.18C862.525 463.249 862.668 463.31 862.817 463.37C863.021 464.21 863.151 465.314 863.443 465.773C864.612 466.692 864.181 466.182 866.31 464.126C868.217 464.4 870.202 464.706 871.863 465.931C870.518 467.898 872.095 468.706 872.257 471.336H873.181C873.162 472.399 873.241 473.536 873.756 474.77C873.923 475.164 875.973 476.519 876.094 477.108C876.474 478.936 871.45 491.774 869.859 493.482C870.304 496.423 871.037 496.238 872.197 498.158C875.811 498.029 880.677 496.572 883.113 495.041C883.632 494.261 884.157 493.482 884.672 492.702C887.52 490.953 892.048 491.607 894.808 489.584C896.673 488.216 897.304 485.26 898.705 483.344C916.152 467.156 906.893 476.055 915.86 463.848C917.159 462.809 918.463 461.769 919.761 460.73C920.666 459.501 920.833 457.788 922.1 456.833C925.811 454.03 924.322 458.429 929.847 447.655C930.32 447.27 930.255 447.164 930.255 446.885C933.66 440.45 934.709 442.046 936.917 438.896C937.863 437.545 937.557 436.372 938.475 434.994C940.725 431.63 944.001 428.21 946.278 424.856V423.297C948.231 420.499 951.437 417.65 953.293 414.718C954.23 410.979 953.668 411.795 955.631 410.821C956.948 408.422 957.584 406.061 958.465 403.731C959.954 401.435 961.406 399.106 962.798 396.739C964.408 394.944 966.166 393.176 967.326 391.329C968.472 389.501 967.924 388.007 968.889 385.869C969.952 383.507 972.508 381.21 973.57 378.849C975.129 374.172 976.688 369.49 978.246 364.814C979.221 362.707 982.074 360.721 982.927 358.573C983.145 356.815 983.368 355.056 983.586 353.298C986.128 348.732 986.416 348.918 987.534 345.916C989.208 343.253 989.575 342.19 990.512 339.254C991.18 338.377 991.046 338.882 991.046 337.708C992.465 333.946 994.478 332.767 996.636 329.742L996.64 329.756ZM832.436 464.637C832.969 465.295 833.085 465.681 833.145 466.53C832.347 465.95 832.51 466.015 832.436 464.637ZM842.785 500.52C841.932 500.562 842.108 499.959 842.108 499.648C843.374 499.648 843.101 499.467 842.785 500.52ZM850.899 483.117C852.063 483.543 851.836 483.581 852.101 482.189C853.525 482.936 853.553 483.854 855.046 484.912C854.74 487.742 854.295 488.118 855.046 490.368C853.989 490.888 852.235 492.094 850.454 493.449V492.224C849.22 492.656 849.248 492.684 848.598 493.616C847.754 492.415 848.663 492.224 847.67 492.224C847.23 493.853 846.39 495.347 845.351 496.4C845.351 496.957 845.467 496.864 844.901 496.864C848.023 491.658 849.591 489.626 850.894 483.117H850.899ZM810.094 935.853H809.166C809.467 936.656 809.259 936.308 809.63 936.781V936.317C810.214 936.317 810.094 936.41 810.094 935.853ZM814.733 927.038C815.099 928.931 815.197 927.901 815.197 928.894H815.661C815.382 927.446 815.582 927.766 814.733 927.038ZM826.794 1018.45C827.328 1019.87 827.258 1018.93 827.258 1019.85H827.722C827.314 1018.75 827.546 1019.08 826.794 1018.45ZM824.939 871.812C824.531 870.717 824.763 871.046 824.011 870.42C824.313 871.222 824.104 870.874 824.475 871.348C824.475 871.923 824.377 871.812 824.939 871.812ZM822.619 1017.06C823.672 1019.51 824.02 1018.89 825.403 1019.85C826.572 1019.85 826.331 1020.03 826.331 1018.92C825.101 1018.18 824.266 1017.46 822.619 1017.06ZM808.702 1039.8C809.004 1040.6 808.795 1040.26 809.166 1040.73V1041.19C808.071 1040.78 808.401 1041.02 807.774 1040.27H807.31C807.459 1041.34 807.524 1041.42 807.774 1042.12C809.426 1041.97 809.319 1042.09 810.094 1041.19C810.678 1041.19 810.558 1041.29 810.558 1040.73C809.737 1040.27 809.792 1040.13 808.702 1039.8ZM801.28 1043.98C799.387 1044.34 800.417 1044.44 799.424 1044.44C799.832 1044.99 799.8 1044.97 800.352 1045.37C799.92 1046.6 799.892 1046.58 798.96 1047.22V1048.15H801.743C801.567 1045.57 801.117 1045.98 801.28 1043.98ZM809.166 937.709C808.605 936.215 808.702 936.805 808.702 937.709H809.166ZM817.052 1005.93C816.742 1006.39 816.435 1006.85 816.125 1007.32C817.043 1007.69 817.688 1007.03 817.98 1006.85H818.444C818.444 1006.27 818.658 1006.46 817.052 1005.93ZM829.114 586.424C828.928 585.473 828.998 585.529 828.65 585.032V586.424H829.114ZM808.233 987.363C807.937 986.561 808.141 986.909 807.77 986.435V987.363H808.233ZM849.994 490.364H849.067C849.8 490.93 849.442 491.111 849.994 490.364ZM852.314 460.201H852.778C852.476 459.398 852.685 459.746 852.314 459.273V460.201ZM831.434 846.757C831.132 845.955 831.341 846.303 830.97 845.829C830.97 846.943 830.854 846.757 831.434 846.757ZM855.097 1049.09C854.796 1048.28 855.005 1048.63 854.634 1048.16C854.634 1049.28 854.518 1049.09 855.097 1049.09ZM827.258 850.469C827.073 851.42 827.142 851.365 826.794 851.861C826.794 853.517 826.646 853.253 827.258 853.253C827.551 852.218 827.602 852.028 828.186 851.397C827.574 850.27 828.404 851.068 827.258 850.469ZM853.706 1046.3C853.553 1046.76 853.395 1047.22 853.242 1047.69C854.313 1047.54 854.392 1047.48 855.097 1047.22C855.097 1046.64 855 1046.76 855.561 1046.76C855.561 1046.14 855.895 1046.3 853.706 1046.3Z" stroke="black" stroke-width="17" stroke-linecap="round" stroke-linejoin="round"/>
</mask>
<g mask="url(#mask0_1299_4)">
<rect x="757" y="390" width="315" height="726" fill="#FBBC04"/>
<rect x="-184" y="-37" width="817" height="585" fill="#EA4335"/>
<rect x="614" y="-37" width="451" height="585" fill="#0F9D58"/>
<rect x="-51" y="513" width="808" height="636" fill="#4285F4"/>
</g>
</svg>
