<svg width="35" height="35" viewBox="0 0 35 35" fill="none" xmlns="http://www.w3.org/2000/svg">
<mask id="mask0_1455_11" style="mask-type:alpha" maskUnits="userSpaceOnUse" x="0" y="0" width="35" height="35">
<path d="M27.3997 32.2127H27.4147V32.2265C27.4488 32.221 27.431 32.2139 27.4598 32.2265C27.489 32.2495 27.4849 32.2464 27.4899 32.2954C27.438 32.2899 27.4128 32.2796 27.3847 32.2541C27.4257 32.232 27.397 32.2563 27.3997 32.2127ZM27.3997 32.2127C27.3899 32.1889 27.3967 32.1992 27.3847 32.1852C27.3847 32.2184 27.3809 32.2127 27.3997 32.2127ZM27.7448 29.2493C27.7448 29.2493 27.7442 29.2504 27.7439 29.251C27.7439 29.2524 27.7442 29.2525 27.7448 29.2493ZM27.7448 29.2493C27.7449 29.2485 27.7451 29.2474 27.7454 29.2462C27.7454 29.247 27.7454 29.2481 27.7454 29.2493H27.7448ZM33.9551 10.8464C33.9122 10.831 33.8727 10.8198 33.8395 10.8152C33.4391 11.2003 32.8051 10.9459 32.273 10.9079C32.1234 10.6722 31.7843 10.4922 31.6666 10.2593V9.88871C31.6218 9.80313 31.3357 9.61377 31.2625 9.51813C31.0986 9.30396 31.0167 9.03908 30.8076 8.86957C30.8918 8.62247 30.9761 8.37537 31.0603 8.12841C31.1473 8.09905 31.219 8.08541 31.3635 8.0821C31.5823 7.91479 31.8177 8.12675 31.9193 8.22102L31.9698 8.17471C32.2219 8.11393 32.2366 7.96647 32.2225 7.66507C32.1395 7.57728 32.1242 7.26196 32.172 7.20188C32.2357 7.00274 32.4167 6.94334 32.5256 6.78499C32.3956 6.66454 32.2614 6.25316 32.172 6.09013V5.95121H32.071C31.8939 5.81629 31.7012 5.71003 31.6163 5.48788C31.5994 5.3644 31.5826 5.24078 31.5658 5.11729L31.4648 4.97838C31.4246 4.81589 31.5849 4.46888 31.5153 4.37626C31.179 4.04565 30.9438 4.23556 30.9594 3.54235H31.0099V3.49604C30.7884 3.48874 30.7582 3.47303 30.7068 3.31068C30.7347 3.27761 30.8198 3.03367 30.7573 2.9401C30.5046 2.86292 30.2519 2.78575 29.9994 2.70857C29.8647 2.62423 29.8575 2.4 29.7467 2.29168V2.33799C29.5994 2.46367 29.5952 2.62381 29.3426 2.66226C29.297 2.44038 29.1832 2.28493 29.0899 2.10632C28.2336 2.12851 27.2689 1.77942 26.9676 1.31885C26.6585 1.44495 26.3256 1.64216 25.957 1.68943V2.06001C25.8079 2.13361 25.668 2.15607 25.4012 2.15263C25.3444 2.19562 25.3585 2.18308 25.2495 2.19893C25.2536 2.33068 25.2587 2.45582 25.199 2.52321C25.1448 2.71174 24.8989 3.02334 24.6937 3.07915C24.5817 3.1307 24.163 3.04442 23.9357 3.03285C23.8278 3.3297 23.8186 3.18844 23.8345 3.6814C23.7068 3.74907 23.5577 3.90838 23.4304 3.95938H23.0765C23.0765 3.95938 22.7026 4.34374 22.6723 4.3764C22.3647 4.28517 22.0208 4.30171 22.0155 3.91307C22.1106 3.80709 22.1978 3.39186 22.2177 3.21821C21.7095 3.08384 21.6878 2.68914 21.5102 2.24538C20.9432 2.00778 20.8741 1.87755 19.9942 1.87479C19.9491 2.01591 19.5067 2.59019 19.3878 2.66226C19.2026 2.72401 19.0172 2.78575 18.832 2.84763C18.6466 3.09459 18.4613 3.34183 18.2761 3.58879C17.7876 3.6351 17.2991 3.6814 16.8108 3.72771C16.6866 3.90838 16.492 3.97329 16.3054 4.09829C16.1472 4.20441 16.0161 4.41747 15.8506 4.51518C15.7143 4.59567 15.0406 4.78116 14.8401 4.79315C14.7995 4.64555 14.7107 4.61468 14.6379 4.51518C14.5793 4.43484 14.5993 4.36055 14.5369 4.28352C14.3898 4.10174 13.9793 4.13371 13.6274 4.1446C13.3137 4.37117 12.856 3.82487 12.5662 3.77401C12.3003 4.02801 11.5757 4.13219 11.5557 4.56149C11.432 4.71584 11.6337 5.16622 11.7579 5.25635C11.8472 5.32112 12.0095 5.30086 12.061 5.39527V6.22904C11.9881 6.2606 11.6519 6.37265 11.6064 6.4144C11.5895 6.47615 11.5727 6.53789 11.5559 6.59963C11.4586 6.75991 11.2112 7.32274 11.0505 7.3871C11.0021 7.41273 10.9537 7.39248 10.7979 7.3871C10.7709 7.6874 10.5471 8.1579 10.1915 8.17457C10.0819 8.06639 9.66378 7.85829 9.43351 7.8503C9.27523 7.96758 9.01234 7.9017 8.82717 7.98921C8.75983 8.06639 8.69234 8.14357 8.62515 8.22088H8.52414C8.23615 8.41478 7.79274 9.0417 7.41247 9.1011C7.17167 8.87343 6.74615 8.86861 6.45245 8.68407C6.1849 8.51622 5.95568 8.06184 5.69444 7.8503C5.72811 7.61863 5.76178 7.38696 5.79545 7.15543C5.75862 7.02423 5.39939 6.49048 5.23961 6.46057C5.10869 6.58488 5.04707 6.52369 5.03745 6.78485C5.08945 6.84328 5.0854 6.89951 5.08795 7.01638C5.00573 7.03402 4.62665 7.16053 4.58261 7.20174C4.49123 7.28718 4.52114 7.48274 4.38045 7.57232C4.31311 7.58776 4.24562 7.60319 4.17829 7.61863C4.04466 7.68699 3.90052 7.8237 3.77411 7.8966C3.65251 7.96661 3.53151 7.95889 3.42043 8.03552C3.22623 8.16961 3.22383 8.46302 3.11726 8.68407C3.00844 8.90981 2.71624 9.02213 2.61192 9.19357C2.5497 9.29583 2.43802 9.80878 2.40976 9.93474C2.22714 9.97044 2.10689 10.0534 1.95508 10.12C2.02227 10.2738 2.08464 10.5182 2.25825 10.5833C2.39413 10.6771 2.57059 10.6179 2.76359 10.6759C3.03309 10.7994 3.30259 10.923 3.57209 11.0465C3.54113 11.1355 3.57164 11.0874 3.52159 11.1391C3.37053 11.2707 3.00979 11.2349 2.91525 11.4171C2.86474 11.556 2.81424 11.695 2.76374 11.8341C2.91299 11.9127 3.13004 12.0698 3.16791 12.251C2.99115 12.3433 2.73082 12.5164 2.71323 12.7606C2.66859 12.8218 2.87647 13.6249 2.9659 13.7335C3.12643 13.9285 3.31296 13.6913 3.37023 14.104C3.03309 14.3185 3.04045 14.9129 3.0164 15.4012H3.06691V15.4475C3.20233 15.4455 3.30214 15.4431 3.37008 15.4938C3.41697 15.5459 3.4033 15.5329 3.42058 15.6327C3.22668 15.7851 2.94155 16.0321 2.86474 16.2812C2.97402 16.3991 2.9423 16.5384 3.11741 16.6055C3.21045 16.6742 3.45215 16.6567 3.62275 16.6518C3.66558 16.7107 3.66047 16.7047 3.72375 16.7444C3.59344 16.9835 3.32514 17.0314 3.21842 17.2078C3.08104 17.4346 3.16626 18.8487 3.16791 19.246C3.41908 19.3833 4.2324 20.033 4.27959 20.3115C4.12613 20.39 3.99566 20.4692 3.97642 20.6821C3.92396 20.747 3.81514 21.7732 3.87541 21.9329C3.91239 22.0309 4.086 22.0635 4.02708 22.2572C3.96635 22.4562 3.73878 22.6563 3.67325 22.9057H3.77426C3.98319 22.7137 4.32333 22.6849 4.58276 22.5351C4.67069 22.4844 4.75276 22.3567 4.83543 22.3035H4.93644C5.05112 22.2324 5.17348 22.093 5.29011 22.0255C5.39112 21.9946 5.49228 21.9638 5.59329 21.9329C5.61012 21.902 5.62696 21.8711 5.64379 21.8403C5.7448 21.8094 5.84595 21.7785 5.94696 21.7477C5.9638 21.7168 5.98063 21.6859 5.99746 21.655C6.54955 21.4864 6.26862 21.5579 7.00799 21.1919C7.07532 21.1764 7.14281 21.161 7.21015 21.1455C7.24382 21.0992 7.27749 21.0529 7.31116 21.0066H7.41216C7.51317 20.8986 7.61433 20.7904 7.71534 20.6824H7.81634C7.90052 20.5897 7.98484 20.497 8.06901 20.4044C8.29613 20.2526 8.62455 20.0906 8.87752 19.9874H9.02918C9.21752 19.9113 9.44178 19.7236 9.63552 19.6631C9.8431 19.5983 10.8649 19.8449 11.0504 19.8947C11.2417 19.9461 11.3797 19.8934 11.5051 19.9874C11.5571 20.0458 11.553 20.1022 11.5556 20.219C11.4706 20.3218 11.435 20.8517 11.4039 21.0065C11.6283 21.0535 12.3922 21.4289 12.4651 21.3771C12.9235 21.2787 13.0374 20.8652 13.5262 20.8211C13.7697 21.016 14.2337 21.0432 14.5368 21.1917C14.5536 21.2226 14.5704 21.2535 14.5873 21.2843C14.7201 21.3621 14.861 21.39 14.9916 21.4697C15.0084 21.5006 15.0253 21.5314 15.0421 21.5623C15.4083 21.7862 15.7873 21.9409 16.1538 22.1645C16.2895 22.2474 16.4505 22.4373 16.6085 22.4888C16.8106 22.4734 17.0128 22.458 17.2148 22.4425C17.4195 22.5049 17.3364 22.6701 17.6191 22.7205C17.7798 22.5889 18.1611 22.5032 18.4276 22.4888C18.5901 22.699 18.9991 22.9774 19.2362 23.1374C19.4215 23.3226 19.6068 23.508 19.792 23.6933C19.8662 23.7439 19.9922 23.7582 20.0447 23.8322C20.112 24.1102 20.1795 24.3882 20.2468 24.6662C20.3983 24.6816 20.55 24.697 20.7017 24.7125C20.8754 24.6612 21.0495 24.4483 21.207 24.3882C21.5943 24.3728 21.9818 24.3573 22.3692 24.3419C22.6268 24.4124 22.9379 24.5734 23.1777 24.6662C23.446 24.7699 23.7023 24.7659 23.9357 24.8978C24.0624 24.9694 24.2064 25.108 24.3399 25.1758C24.5967 25.3062 25.4401 25.5793 25.3505 25.9633C25.2244 26.5042 24.8366 26.7104 24.542 27.075C24.4837 27.1471 24.4726 27.2511 24.3904 27.3067C24.0568 27.532 23.8054 27.5134 23.784 28.0479C23.954 28.1789 23.9372 28.3366 23.885 28.5575C23.6065 28.6422 23.2605 28.6535 23.026 28.7427C22.994 28.8225 22.9791 28.8882 22.9755 29.0207C22.8408 29.1804 22.7749 29.983 22.7735 30.2714C22.9026 30.3531 22.9542 30.5125 23.0767 30.5956C23.4876 30.8746 24.1893 31.2661 24.239 31.8464C24.1467 31.8969 24.0929 31.948 24.0368 32.0317C24.2363 32.0835 24.2994 32.2184 24.441 32.3096H24.542C24.7002 32.4083 24.8426 32.581 24.9967 32.6802C25.0833 32.7359 25.1628 32.7173 25.2494 32.7728C25.3529 32.8394 25.449 32.9841 25.5525 33.0508C25.6393 33.1066 25.718 33.0881 25.8052 33.1434C25.913 33.2917 25.8962 33.2909 25.9981 33.3188C26.0235 33.2357 26.0645 33.1562 26.0695 33.1429C26.1956 32.8763 26.3726 32.66 26.5378 32.4326C26.6277 32.3091 26.709 32.143 26.841 32.062C26.983 31.975 27.2181 31.9968 27.3463 31.8999C27.5046 31.5807 27.4061 31.701 27.8012 31.3671C27.8297 31.3294 27.8178 31.304 27.8517 31.2744C27.8423 31.082 27.7225 31.0473 27.6748 30.9038C27.6832 30.7494 27.6916 30.5949 27.7 30.4406C27.6817 30.38 27.6163 30.2793 27.599 30.2321C27.5734 30.1623 27.5829 29.999 27.5737 29.9541C27.5816 29.8714 27.5742 29.9489 27.5737 29.9522C27.574 29.9491 27.5828 29.8575 27.6241 29.4215C27.648 29.3778 27.7162 29.306 27.7439 29.2506C27.7439 29.2471 27.7452 29.2361 27.7454 29.2457C27.7493 29.224 27.7625 29.1297 27.801 28.796C27.8272 28.727 27.9097 28.6808 27.9112 28.5782C27.9304 28.5568 27.928 28.5608 27.9097 28.5527C27.8975 28.4612 27.8175 28.403 27.8515 28.2865C27.8843 28.1742 27.8807 28.189 27.8807 28.2014C27.9047 28.1898 27.8989 28.195 27.8852 28.1792C28.0731 27.6091 28.0537 27.7793 28.0537 27.5221C28.0822 27.4273 28.1236 27.2624 28.1547 27.1747V27.0589C28.1825 26.9936 28.2679 26.9364 28.3006 26.8643C28.3009 26.8643 28.3012 26.8643 28.3017 26.8643C28.3015 26.8639 28.3014 26.8635 28.3012 26.8632C28.3086 26.8468 28.3063 26.8819 28.3063 26.5262C28.3737 26.4182 28.4412 26.31 28.5085 26.202V25.8777C28.5252 25.8278 28.5924 25.7592 28.6095 25.7156C28.6095 25.564 28.6247 25.6825 28.6412 25.4948C28.685 25.3842 28.7477 25.2408 28.8117 25.1828C28.8084 25.1273 28.7971 25.1373 28.8279 25.1001C28.8156 25.0135 28.7884 25.0271 28.6519 24.7781C28.6367 24.6469 28.651 24.6659 28.59 24.6436C28.582 24.6207 28.5874 24.6715 28.5589 24.2564C28.4661 23.9293 28.5876 24.0661 28.4774 23.8777C28.4741 23.8583 28.4706 23.8389 28.4675 23.8193C28.5026 23.7819 28.4827 23.7559 28.4511 23.7198C28.3133 22.8742 28.3372 23.332 28.3262 22.9129C28.3767 22.6989 28.3229 22.7795 28.3063 22.1486C28.3054 22.1451 28.2898 22.1104 28.2763 22.0798C28.2489 21.9507 28.2558 22.082 28.2558 21.6854C28.2208 21.6025 28.2265 21.6603 28.2265 21.53C28.187 21.5569 28.2034 21.559 28.1923 21.5568C27.9942 21.1588 28.1294 21.1209 28.2306 20.8051V20.5735C28.2408 20.5396 28.2972 20.4602 28.3063 20.4346C28.3063 20.13 28.2994 20.3047 28.3821 20.064C28.3804 20.0423 28.3788 20.0208 28.3771 19.9992C28.3928 19.9525 28.3612 19.9459 28.377 19.9173C28.3678 19.9033 28.3716 19.9281 28.357 19.7397C28.3725 19.6967 28.441 19.6267 28.458 19.5775V19.4386C28.4654 19.42 28.5273 19.3828 28.5338 19.3691C28.5958 19.2394 28.611 18.5994 28.5249 18.6055C28.5097 18.5898 28.5123 18.5998 28.5123 18.5804C28.4941 18.5888 28.4863 18.5994 28.4806 18.6103C28.3916 18.6245 28.3651 18.6595 28.3113 18.6999C28.3143 18.6825 28.3125 18.6654 28.3018 18.6493C28.2745 18.7166 28.2563 18.7029 28.2117 18.7044C28.2279 18.7439 28.2384 18.7411 28.2417 18.8009C28.2811 18.8009 28.2674 18.807 28.2839 18.7709C28.2903 18.8352 28.3094 18.8628 28.3823 18.8828C28.3662 18.9267 28.3823 18.9032 28.357 18.9291C28.357 18.9582 28.3623 18.9522 28.3316 18.9522C28.313 18.9175 28.3167 18.9473 28.3167 18.856C28.2949 18.8588 28.2767 18.8588 28.2591 18.8574C28.2005 18.797 28.132 18.7483 28.1063 18.7182V18.7219C28.0735 18.6934 28.0789 18.7009 28.0789 18.6817C28.1862 18.6926 28.159 18.6956 28.1876 18.6704C28.2295 18.6732 28.2118 18.6646 28.3314 18.628C28.3468 18.5499 28.3323 18.5695 28.3314 18.5122C28.3511 18.4837 28.3971 18.486 28.4072 18.4427C28.3645 18.3971 28.3185 18.2262 28.3567 18.1184C28.3804 18.0509 28.4227 18.0364 28.4319 17.9394C28.4337 17.9375 28.4356 17.9356 28.4374 17.9338C28.5064 17.9412 28.5223 17.9444 28.5587 17.9797C28.6823 17.9626 28.6486 17.927 28.7104 17.8638C28.7041 17.8465 28.709 17.8089 28.6805 17.7814C28.6487 17.6943 28.6519 17.7185 28.6623 17.6708C28.6509 17.6471 28.6409 17.6565 28.6322 17.6489C28.6049 17.5735 28.625 17.593 28.5587 17.5626C28.5471 17.5203 28.6699 17.3321 28.6851 17.2847C28.6841 17.2724 28.683 17.2603 28.6821 17.248C28.6958 17.2422 28.6905 17.2538 28.7075 17.1608C28.7012 17.146 28.6865 17.1356 28.6719 17.1252C28.668 17.0779 28.6639 17.0308 28.66 16.9835C28.631 16.9835 28.6495 16.987 28.6348 16.9666C28.6348 16.9592 28.6363 16.9607 28.6289 16.9598C28.6008 16.9321 28.6023 16.9512 28.6023 16.9265C28.5769 16.9265 28.5958 16.9221 28.5668 16.9553C28.551 16.9557 28.5356 16.9581 28.483 16.9605C28.4762 16.8671 28.4248 16.7493 28.483 16.6826V16.5899C28.509 16.5384 28.9008 16.2945 28.9884 16.2657C28.9815 16.1903 28.9557 16.1901 28.963 16.1823C29.0119 16.1656 29.0024 16.1739 28.9091 16.1436C28.8933 16.1365 28.7794 16.1048 28.7376 16.0583H28.7114C28.7114 16.0583 28.7108 16.0576 28.7105 16.0573C28.706 16.0573 28.7075 16.0592 28.7075 16.0445C28.7879 16.0468 28.8193 16.0618 28.8578 16.0996C28.9008 16.1 28.9384 16.1002 28.9617 16.0865C28.9623 16.0988 28.9627 16.112 28.9632 16.1268C28.9948 16.1513 29.0024 16.1736 29.0388 16.1962C29.0388 16.2253 29.0337 16.2194 29.0642 16.2194C29.1097 16.155 29.1923 16.1376 29.2411 16.0804C29.2495 16.0573 29.2579 16.0341 29.2664 16.0109C29.3054 15.9822 29.3516 15.9916 29.3926 15.9645C29.4306 15.9228 29.4685 15.881 29.5066 15.8394C29.5419 15.8361 29.5296 15.8453 29.5538 15.807C29.6319 15.7722 29.7104 15.7781 29.7464 15.6867C29.824 15.5687 29.5781 15.3179 29.4179 15.293C29.3584 15.2628 29.3501 15.3058 29.2916 15.3393C29.2898 15.3365 29.288 15.334 29.2862 15.3314C29.3116 15.2934 29.3248 15.3012 29.25 15.2891C29.2112 15.2547 29.163 15.2453 29.0707 15.246C29.0484 15.2002 29.0385 15.1808 29.0259 15.1878C29.0968 15.1157 29.2053 15.0105 29.241 14.9223C29.2256 14.8237 29.2264 14.8436 29.2336 14.8314C29.2237 14.8255 29.227 14.8329 29.2157 14.7602C29.2793 14.731 29.2644 14.7537 29.2752 14.655C29.2802 14.6513 29.2787 14.6539 29.2787 14.6385H29.2937C29.3015 14.6729 29.2963 14.6502 29.2937 14.6936C29.3127 14.6936 29.3087 14.6964 29.3087 14.6798H29.3388C29.3354 14.617 29.3191 14.6006 29.2833 14.5803C29.2849 14.5666 29.2864 14.5526 29.2879 14.5389C29.3226 14.532 29.3553 14.5842 29.3839 14.6108C29.3962 14.6324 29.4071 14.5965 29.429 14.5832C29.4255 14.5626 29.4188 14.57 29.4684 14.5748C29.4754 14.6388 29.4834 14.6783 29.5189 14.7137C29.5314 14.7512 29.5637 14.7897 29.5793 14.8039C29.5583 14.8513 29.5407 14.9158 29.5042 14.9417C29.5562 15.1166 29.5414 15.0897 29.5793 15.1071C29.6121 15.0488 29.6456 14.9975 29.6545 14.9141C29.5389 14.9097 29.5804 14.8979 29.605 14.8095C29.6097 14.8116 29.6143 14.8134 29.6191 14.8152C29.6257 14.8401 29.63 14.8729 29.6394 14.8866C29.6773 14.9138 29.6633 14.8987 29.7323 14.8376C29.7941 14.8458 29.8584 14.8549 29.9122 14.8912C29.8686 14.9497 29.9198 14.9737 29.925 15.0518H29.9549C29.9543 15.0834 29.9569 15.1171 29.9736 15.1538C29.979 15.1655 30.0454 15.2057 30.0493 15.2232C30.0616 15.2775 29.8989 15.6589 29.8473 15.7096C29.8617 15.797 29.8855 15.7914 29.9231 15.8485C30.0401 15.8446 30.1978 15.8014 30.2767 15.7559C30.2936 15.7327 30.3106 15.7096 30.3272 15.6864C30.4195 15.6345 30.5662 15.6539 30.6557 15.5938C30.7161 15.5532 30.7365 15.4654 30.7819 15.4085C31.3472 14.9276 31.0472 15.192 31.3378 14.8294C31.3798 14.7985 31.4221 14.7676 31.4642 14.7368C31.4935 14.7002 31.4989 14.6494 31.5399 14.621C31.6602 14.5377 31.6119 14.6684 31.7909 14.3484C31.8063 14.337 31.8042 14.3338 31.8042 14.3255C31.9145 14.1344 31.9485 14.1818 32.02 14.0882C32.0507 14.0481 32.0407 14.0132 32.0705 13.9723C32.1434 13.8724 32.2495 13.7708 32.3233 13.6712V13.6249C32.3866 13.5418 32.4905 13.4571 32.5506 13.37C32.581 13.259 32.5628 13.2832 32.6263 13.2543C32.669 13.183 32.6896 13.1129 32.7182 13.0437C32.7664 12.9755 32.8135 12.9063 32.8586 12.836C32.9107 12.7827 32.9677 12.7302 33.0053 12.6753C33.0424 12.621 33.0247 12.5766 33.0559 12.5131C33.0904 12.443 33.1732 12.3747 33.2076 12.3046C33.2581 12.1657 33.3086 12.0266 33.3591 11.8877C33.3907 11.8251 33.4831 11.7662 33.5108 11.7024C33.5178 11.6501 33.525 11.5979 33.5321 11.5457C33.6145 11.41 33.6238 11.4156 33.66 11.3264C33.7143 11.2473 33.7262 11.2157 33.7565 11.1285C33.7782 11.1024 33.7738 11.1175 33.7738 11.0826C33.8198 10.9708 33.885 10.9358 33.9549 10.846L33.9551 10.8464ZM28.6348 14.8528C28.6521 14.8724 28.6558 14.8838 28.6578 14.909C28.6319 14.8918 28.6372 14.8937 28.6348 14.8528ZM28.9701 15.9187C28.9424 15.9199 28.9482 15.902 28.9482 15.8927C28.9892 15.8927 28.9803 15.8874 28.9701 15.9187ZM29.233 15.4017C29.2707 15.4144 29.2634 15.4155 29.2719 15.3741C29.3181 15.3963 29.319 15.4236 29.3674 15.455C29.3574 15.5391 29.343 15.5503 29.3674 15.6171C29.3331 15.6325 29.2763 15.6684 29.2186 15.7086V15.6722C29.1786 15.6851 29.1795 15.6859 29.1584 15.7136C29.1311 15.6779 29.1605 15.6722 29.1284 15.6722C29.1141 15.7206 29.0869 15.765 29.0532 15.7963C29.0532 15.8128 29.057 15.8101 29.0386 15.8101C29.1398 15.6554 29.1906 15.5951 29.2328 15.4017H29.233ZM27.9109 28.8495H27.8808C27.8906 28.8734 27.8838 28.863 27.8959 28.8771V28.8633C27.9148 28.8633 27.9109 28.8661 27.9109 28.8495ZM28.0612 28.5877C28.0731 28.6439 28.0762 28.6133 28.0762 28.6428H28.0913C28.0822 28.5998 28.0887 28.6093 28.0612 28.5877ZM28.452 31.303C28.4693 31.3452 28.467 31.3172 28.467 31.3444H28.4821C28.4688 31.3119 28.4763 31.3216 28.452 31.303ZM28.3919 26.9473C28.3786 26.9147 28.3862 26.9245 28.3618 26.9059C28.3716 26.9298 28.3648 26.9194 28.3768 26.9335C28.3768 26.9506 28.3737 26.9473 28.3919 26.9473ZM28.3167 31.2617C28.3508 31.3343 28.3621 31.316 28.4069 31.3444C28.4448 31.3444 28.437 31.3499 28.437 31.3168C28.3971 31.295 28.3701 31.2735 28.3167 31.2617ZM27.8658 31.9371C27.8756 31.961 27.8688 31.9506 27.8808 31.9647V31.9785C27.8453 31.9663 27.856 31.9732 27.8357 31.9509H27.8207C27.8255 31.9827 27.8276 31.9851 27.8357 32.006C27.8892 32.0015 27.8858 32.0052 27.9109 31.9785C27.9298 31.9785 27.9259 31.9812 27.9259 31.9647C27.8993 31.9512 27.9011 31.9469 27.8658 31.9371ZM27.6253 32.0612C27.564 32.072 27.5973 32.0749 27.5652 32.0749C27.5784 32.0912 27.5774 32.0905 27.5952 32.1025C27.5813 32.139 27.5804 32.1383 27.5501 32.1576V32.1852H27.6403C27.6346 32.1084 27.62 32.1207 27.6253 32.0612ZM27.8808 28.9046C27.8626 28.8603 27.8658 28.8778 27.8658 28.9046H27.8808ZM28.1363 30.9309C28.1263 30.9447 28.1164 30.9585 28.1063 30.9723C28.136 30.9832 28.1569 30.9637 28.1664 30.9585H28.1814C28.1814 30.9411 28.1884 30.9468 28.1363 30.9309ZM28.5271 18.4703C28.5211 18.442 28.5234 18.4437 28.5121 18.4289V18.4703H28.5271ZM27.8506 30.3795C27.841 30.3557 27.8476 30.366 27.8356 30.352V30.3795H27.8506ZM29.2037 15.617H29.1736C29.1974 15.6338 29.1858 15.6392 29.2037 15.617ZM29.2788 14.721H29.2939C29.2841 14.6972 29.2909 14.7075 29.2788 14.6935V14.721ZM28.6023 26.2031C28.5925 26.1792 28.5993 26.1896 28.5873 26.1755C28.5873 26.2086 28.5835 26.2031 28.6023 26.2031ZM29.369 32.2129C29.3593 32.189 29.366 32.1994 29.354 32.1853C29.354 32.2185 29.3502 32.2129 29.369 32.2129ZM28.467 26.3133C28.461 26.3416 28.4633 26.3399 28.452 26.3547C28.452 26.4039 28.4472 26.396 28.467 26.396C28.4765 26.3653 28.4781 26.3596 28.4971 26.3409C28.4772 26.3074 28.5042 26.3311 28.467 26.3133ZM29.3239 32.1301C29.319 32.1438 29.3139 32.1576 29.3089 32.1714C29.3436 32.167 29.3462 32.1651 29.369 32.1576C29.369 32.1403 29.3659 32.1438 29.3841 32.1438C29.3841 32.1255 29.3949 32.1301 29.3239 32.1301Z" stroke="black" stroke-width="2" stroke-linecap="round" stroke-linejoin="round"/>
</mask>
<g mask="url(#mask0_1455_11)">
<rect x="26.1904" y="12.6357" width="10.2061" height="21.5646" fill="#FBBC04"/>
<rect x="-4.29834" y="-0.0478516" width="26.4712" height="17.3765" fill="#EA4335"/>
<rect x="21.5576" y="-0.0478516" width="14.6126" height="17.3765" fill="#0F9D58"/>
<rect x="0.0107422" y="16.2891" width="26.1796" height="18.8913" fill="#4285F4"/>
</g>
</svg>
